<mxfile host="app.diagrams.net" agent="Mozilla/5.0 (Windows NT 10.0; Win64; x64) AppleWebKit/537.36 (KHTML, like Gecko) Chrome/139.0.0.0 Safari/537.36" version="28.2.0">
  <diagram name="Página-1" id="E_11fuhUM5UJxVzfT7Si">
    <mxGraphModel dx="1111" dy="431" grid="1" gridSize="10" guides="1" tooltips="1" connect="1" arrows="1" fold="1" page="1" pageScale="1" pageWidth="827" pageHeight="1169" math="0" shadow="0">
      <root>
        <mxCell id="0" />
        <mxCell id="1" parent="0" />
        <mxCell id="39Ro46Ae0DZXvr7_Et2Z-15" style="edgeStyle=orthogonalEdgeStyle;rounded=0;orthogonalLoop=1;jettySize=auto;html=1;exitX=0.5;exitY=0.5;exitDx=0;exitDy=0;exitPerimeter=0;" parent="1" source="1HfR6KhcZJIFhbi_jKCF-1" target="39Ro46Ae0DZXvr7_Et2Z-14" edge="1">
          <mxGeometry relative="1" as="geometry" />
        </mxCell>
        <mxCell id="39Ro46Ae0DZXvr7_Et2Z-20" style="edgeStyle=orthogonalEdgeStyle;rounded=0;orthogonalLoop=1;jettySize=auto;html=1;exitX=0.5;exitY=0.5;exitDx=0;exitDy=0;exitPerimeter=0;" parent="1" source="qHWSi0hVaHGJKwkZEGV3-1" target="39Ro46Ae0DZXvr7_Et2Z-37" edge="1">
          <mxGeometry relative="1" as="geometry">
            <Array as="points">
              <mxPoint x="275" y="225" />
              <mxPoint x="190" y="225" />
              <mxPoint x="190" y="540" />
              <mxPoint x="830" y="540" />
            </Array>
          </mxGeometry>
        </mxCell>
        <mxCell id="qHWSi0hVaHGJKwkZEGV3-11" style="edgeStyle=orthogonalEdgeStyle;rounded=0;orthogonalLoop=1;jettySize=auto;html=1;exitX=0.5;exitY=0.5;exitDx=0;exitDy=0;exitPerimeter=0;" edge="1" parent="1" source="1HfR6KhcZJIFhbi_jKCF-1" target="39Ro46Ae0DZXvr7_Et2Z-14">
          <mxGeometry relative="1" as="geometry">
            <Array as="points">
              <mxPoint x="350" y="390" />
              <mxPoint x="350" y="245" />
            </Array>
          </mxGeometry>
        </mxCell>
        <mxCell id="1HfR6KhcZJIFhbi_jKCF-1" value="Participante" style="shape=umlActor;verticalLabelPosition=bottom;verticalAlign=top;html=1;" parent="1" vertex="1">
          <mxGeometry x="300" y="360" width="30" height="60" as="geometry" />
        </mxCell>
        <mxCell id="39Ro46Ae0DZXvr7_Et2Z-25" style="edgeStyle=orthogonalEdgeStyle;rounded=0;orthogonalLoop=1;jettySize=auto;html=1;exitX=0.5;exitY=0.5;exitDx=0;exitDy=0;exitPerimeter=0;" parent="1" source="1HfR6KhcZJIFhbi_jKCF-6" target="39Ro46Ae0DZXvr7_Et2Z-24" edge="1">
          <mxGeometry relative="1" as="geometry" />
        </mxCell>
        <mxCell id="39Ro46Ae0DZXvr7_Et2Z-30" style="edgeStyle=orthogonalEdgeStyle;rounded=0;orthogonalLoop=1;jettySize=auto;html=1;exitX=0.5;exitY=0.5;exitDx=0;exitDy=0;exitPerimeter=0;" parent="1" source="1HfR6KhcZJIFhbi_jKCF-6" target="39Ro46Ae0DZXvr7_Et2Z-29" edge="1">
          <mxGeometry relative="1" as="geometry" />
        </mxCell>
        <mxCell id="qHWSi0hVaHGJKwkZEGV3-10" style="edgeStyle=orthogonalEdgeStyle;rounded=0;orthogonalLoop=1;jettySize=auto;html=1;exitX=0.5;exitY=0.5;exitDx=0;exitDy=0;exitPerimeter=0;" edge="1" parent="1" source="1HfR6KhcZJIFhbi_jKCF-6" target="39Ro46Ae0DZXvr7_Et2Z-33">
          <mxGeometry relative="1" as="geometry">
            <Array as="points">
              <mxPoint x="1040" y="310" />
              <mxPoint x="1040" y="385" />
              <mxPoint x="1000" y="385" />
            </Array>
          </mxGeometry>
        </mxCell>
        <mxCell id="1HfR6KhcZJIFhbi_jKCF-6" value="Admin Congreso" style="shape=umlActor;verticalLabelPosition=bottom;verticalAlign=top;html=1;" parent="1" vertex="1">
          <mxGeometry x="960" y="280" width="30" height="60" as="geometry" />
        </mxCell>
        <mxCell id="39Ro46Ae0DZXvr7_Et2Z-38" style="edgeStyle=orthogonalEdgeStyle;rounded=0;orthogonalLoop=1;jettySize=auto;html=1;exitX=0.5;exitY=0.5;exitDx=0;exitDy=0;exitPerimeter=0;" parent="1" source="1HfR6KhcZJIFhbi_jKCF-7" target="39Ro46Ae0DZXvr7_Et2Z-37" edge="1">
          <mxGeometry relative="1" as="geometry" />
        </mxCell>
        <mxCell id="1HfR6KhcZJIFhbi_jKCF-7" value="Admin Sistema" style="shape=umlActor;verticalLabelPosition=bottom;verticalAlign=top;html=1;" parent="1" vertex="1">
          <mxGeometry x="700" y="390" width="30" height="60" as="geometry" />
        </mxCell>
        <mxCell id="39Ro46Ae0DZXvr7_Et2Z-13" style="edgeStyle=orthogonalEdgeStyle;rounded=0;orthogonalLoop=1;jettySize=auto;html=1;exitX=0.5;exitY=0.5;exitDx=0;exitDy=0;exitPerimeter=0;" parent="1" source="1HfR6KhcZJIFhbi_jKCF-10" target="1HfR6KhcZJIFhbi_jKCF-12" edge="1">
          <mxGeometry relative="1" as="geometry" />
        </mxCell>
        <mxCell id="1HfR6KhcZJIFhbi_jKCF-10" value="Comité Cientifico" style="shape=umlActor;verticalLabelPosition=bottom;verticalAlign=top;html=1;" parent="1" vertex="1">
          <mxGeometry x="430" y="60" width="30" height="60" as="geometry" />
        </mxCell>
        <mxCell id="1HfR6KhcZJIFhbi_jKCF-12" value="Evaluar Propuesta" style="ellipse;whiteSpace=wrap;html=1;" parent="1" vertex="1">
          <mxGeometry x="560" y="70" width="100" height="40" as="geometry" />
        </mxCell>
        <mxCell id="1HfR6KhcZJIFhbi_jKCF-13" value="Abrir combocatoria" style="ellipse;whiteSpace=wrap;html=1;" parent="1" vertex="1">
          <mxGeometry x="810" y="90" width="110" height="50" as="geometry" />
        </mxCell>
        <mxCell id="39Ro46Ae0DZXvr7_Et2Z-10" value="" style="endArrow=block;dashed=1;endFill=0;endSize=12;html=1;rounded=0;" parent="1" source="1HfR6KhcZJIFhbi_jKCF-12" target="1HfR6KhcZJIFhbi_jKCF-13" edge="1">
          <mxGeometry width="160" relative="1" as="geometry">
            <mxPoint x="640" y="140" as="sourcePoint" />
            <mxPoint x="800" y="140" as="targetPoint" />
          </mxGeometry>
        </mxCell>
        <mxCell id="39Ro46Ae0DZXvr7_Et2Z-11" value="Includes" style="edgeLabel;html=1;align=center;verticalAlign=middle;resizable=0;points=[];" parent="39Ro46Ae0DZXvr7_Et2Z-10" vertex="1" connectable="0">
          <mxGeometry x="0.058" y="2" relative="1" as="geometry">
            <mxPoint as="offset" />
          </mxGeometry>
        </mxCell>
        <mxCell id="39Ro46Ae0DZXvr7_Et2Z-12" style="edgeStyle=orthogonalEdgeStyle;rounded=0;orthogonalLoop=1;jettySize=auto;html=1;exitX=0.5;exitY=0.5;exitDx=0;exitDy=0;exitPerimeter=0;entryX=0.908;entryY=0.853;entryDx=0;entryDy=0;entryPerimeter=0;" parent="1" source="1HfR6KhcZJIFhbi_jKCF-6" target="1HfR6KhcZJIFhbi_jKCF-13" edge="1">
          <mxGeometry relative="1" as="geometry">
            <Array as="points">
              <mxPoint x="1080" y="310" />
              <mxPoint x="1080" y="133" />
            </Array>
          </mxGeometry>
        </mxCell>
        <mxCell id="39Ro46Ae0DZXvr7_Et2Z-14" value="Incribir a congreso" style="ellipse;whiteSpace=wrap;html=1;" parent="1" vertex="1">
          <mxGeometry x="440" y="220" width="110" height="50" as="geometry" />
        </mxCell>
        <mxCell id="39Ro46Ae0DZXvr7_Et2Z-16" value="Iniciar secion o crear usuario" style="ellipse;whiteSpace=wrap;html=1;" parent="1" vertex="1">
          <mxGeometry x="660" y="270" width="100" height="40" as="geometry" />
        </mxCell>
        <mxCell id="39Ro46Ae0DZXvr7_Et2Z-17" value="" style="endArrow=block;dashed=1;endFill=0;endSize=12;html=1;rounded=0;" parent="1" source="39Ro46Ae0DZXvr7_Et2Z-14" target="39Ro46Ae0DZXvr7_Et2Z-16" edge="1">
          <mxGeometry width="160" relative="1" as="geometry">
            <mxPoint x="550" y="250" as="sourcePoint" />
            <mxPoint x="702" y="265" as="targetPoint" />
          </mxGeometry>
        </mxCell>
        <mxCell id="39Ro46Ae0DZXvr7_Et2Z-18" value="Includes" style="edgeLabel;html=1;align=center;verticalAlign=middle;resizable=0;points=[];" parent="39Ro46Ae0DZXvr7_Et2Z-17" vertex="1" connectable="0">
          <mxGeometry x="0.058" y="2" relative="1" as="geometry">
            <mxPoint as="offset" />
          </mxGeometry>
        </mxCell>
        <mxCell id="39Ro46Ae0DZXvr7_Et2Z-19" value="Carga dinero" style="ellipse;whiteSpace=wrap;html=1;" parent="1" vertex="1">
          <mxGeometry x="440" y="350" width="100" height="40" as="geometry" />
        </mxCell>
        <mxCell id="39Ro46Ae0DZXvr7_Et2Z-21" value="" style="endArrow=block;dashed=1;endFill=0;endSize=12;html=1;rounded=0;" parent="1" source="39Ro46Ae0DZXvr7_Et2Z-19" target="39Ro46Ae0DZXvr7_Et2Z-16" edge="1">
          <mxGeometry width="160" relative="1" as="geometry">
            <mxPoint x="560" y="310" as="sourcePoint" />
            <mxPoint x="712" y="325" as="targetPoint" />
          </mxGeometry>
        </mxCell>
        <mxCell id="39Ro46Ae0DZXvr7_Et2Z-22" value="Includes" style="edgeLabel;html=1;align=center;verticalAlign=middle;resizable=0;points=[];" parent="39Ro46Ae0DZXvr7_Et2Z-21" vertex="1" connectable="0">
          <mxGeometry x="0.058" y="2" relative="1" as="geometry">
            <mxPoint as="offset" />
          </mxGeometry>
        </mxCell>
        <mxCell id="39Ro46Ae0DZXvr7_Et2Z-24" value="Crear Congreso" style="ellipse;whiteSpace=wrap;html=1;" parent="1" vertex="1">
          <mxGeometry x="750" y="170" width="100" height="40" as="geometry" />
        </mxCell>
        <mxCell id="39Ro46Ae0DZXvr7_Et2Z-27" value="" style="endArrow=block;dashed=1;endFill=0;endSize=12;html=1;rounded=0;" parent="1" source="39Ro46Ae0DZXvr7_Et2Z-24" target="39Ro46Ae0DZXvr7_Et2Z-16" edge="1">
          <mxGeometry width="160" relative="1" as="geometry">
            <mxPoint x="780" y="240" as="sourcePoint" />
            <mxPoint x="932" y="255" as="targetPoint" />
          </mxGeometry>
        </mxCell>
        <mxCell id="39Ro46Ae0DZXvr7_Et2Z-28" value="Includes" style="edgeLabel;html=1;align=center;verticalAlign=middle;resizable=0;points=[];" parent="39Ro46Ae0DZXvr7_Et2Z-27" vertex="1" connectable="0">
          <mxGeometry x="0.058" y="2" relative="1" as="geometry">
            <mxPoint as="offset" />
          </mxGeometry>
        </mxCell>
        <mxCell id="39Ro46Ae0DZXvr7_Et2Z-29" value="Agregar actividad" style="ellipse;whiteSpace=wrap;html=1;" parent="1" vertex="1">
          <mxGeometry x="960" y="160" width="100" height="50" as="geometry" />
        </mxCell>
        <mxCell id="39Ro46Ae0DZXvr7_Et2Z-31" value="" style="endArrow=block;dashed=1;endFill=0;endSize=12;html=1;rounded=0;" parent="1" source="39Ro46Ae0DZXvr7_Et2Z-29" target="39Ro46Ae0DZXvr7_Et2Z-24" edge="1">
          <mxGeometry width="160" relative="1" as="geometry">
            <mxPoint x="900" y="220" as="sourcePoint" />
            <mxPoint x="1052" y="235" as="targetPoint" />
          </mxGeometry>
        </mxCell>
        <mxCell id="39Ro46Ae0DZXvr7_Et2Z-32" value="Includes" style="edgeLabel;html=1;align=center;verticalAlign=middle;resizable=0;points=[];" parent="39Ro46Ae0DZXvr7_Et2Z-31" vertex="1" connectable="0">
          <mxGeometry x="0.058" y="2" relative="1" as="geometry">
            <mxPoint as="offset" />
          </mxGeometry>
        </mxCell>
        <mxCell id="39Ro46Ae0DZXvr7_Et2Z-33" value="Registra asistencia" style="ellipse;whiteSpace=wrap;html=1;" parent="1" vertex="1">
          <mxGeometry x="950" y="430" width="100" height="50" as="geometry" />
        </mxCell>
        <mxCell id="39Ro46Ae0DZXvr7_Et2Z-37" value="Generar diploma" style="ellipse;whiteSpace=wrap;html=1;" parent="1" vertex="1">
          <mxGeometry x="780" y="370" width="100" height="40" as="geometry" />
        </mxCell>
        <mxCell id="39Ro46Ae0DZXvr7_Et2Z-39" value="" style="endArrow=block;dashed=1;endFill=0;endSize=12;html=1;rounded=0;" parent="1" source="39Ro46Ae0DZXvr7_Et2Z-37" target="39Ro46Ae0DZXvr7_Et2Z-33" edge="1">
          <mxGeometry width="160" relative="1" as="geometry">
            <mxPoint x="780" y="350" as="sourcePoint" />
            <mxPoint x="932" y="365" as="targetPoint" />
          </mxGeometry>
        </mxCell>
        <mxCell id="39Ro46Ae0DZXvr7_Et2Z-40" value="Includes" style="edgeLabel;html=1;align=center;verticalAlign=middle;resizable=0;points=[];" parent="39Ro46Ae0DZXvr7_Et2Z-39" vertex="1" connectable="0">
          <mxGeometry x="0.058" y="2" relative="1" as="geometry">
            <mxPoint as="offset" />
          </mxGeometry>
        </mxCell>
        <mxCell id="qHWSi0hVaHGJKwkZEGV3-3" style="edgeStyle=orthogonalEdgeStyle;rounded=0;orthogonalLoop=1;jettySize=auto;html=1;exitX=0.5;exitY=0.5;exitDx=0;exitDy=0;exitPerimeter=0;" edge="1" parent="1" source="qHWSi0hVaHGJKwkZEGV3-1" target="qHWSi0hVaHGJKwkZEGV3-2">
          <mxGeometry relative="1" as="geometry">
            <Array as="points">
              <mxPoint x="335" y="160" />
              <mxPoint x="430" y="160" />
              <mxPoint x="430" y="180" />
            </Array>
          </mxGeometry>
        </mxCell>
        <mxCell id="qHWSi0hVaHGJKwkZEGV3-1" value="Sistema" style="shape=umlActor;verticalLabelPosition=bottom;verticalAlign=top;html=1;" vertex="1" parent="1">
          <mxGeometry x="260" y="90" width="30" height="60" as="geometry" />
        </mxCell>
        <mxCell id="qHWSi0hVaHGJKwkZEGV3-2" value="Generar ganancia" style="ellipse;whiteSpace=wrap;html=1;" vertex="1" parent="1">
          <mxGeometry x="580" y="140" width="110" height="40" as="geometry" />
        </mxCell>
        <mxCell id="qHWSi0hVaHGJKwkZEGV3-4" value="" style="endArrow=block;dashed=1;endFill=0;endSize=12;html=1;rounded=0;" edge="1" parent="1" source="qHWSi0hVaHGJKwkZEGV3-2" target="39Ro46Ae0DZXvr7_Et2Z-14">
          <mxGeometry width="160" relative="1" as="geometry">
            <mxPoint x="560" y="250" as="sourcePoint" />
            <mxPoint x="681" y="276" as="targetPoint" />
          </mxGeometry>
        </mxCell>
        <mxCell id="qHWSi0hVaHGJKwkZEGV3-5" value="Includes" style="edgeLabel;html=1;align=center;verticalAlign=middle;resizable=0;points=[];" vertex="1" connectable="0" parent="qHWSi0hVaHGJKwkZEGV3-4">
          <mxGeometry x="0.058" y="2" relative="1" as="geometry">
            <mxPoint as="offset" />
          </mxGeometry>
        </mxCell>
      </root>
    </mxGraphModel>
  </diagram>
</mxfile>
